<svg width="16" height="14" viewBox="0 0 16 14" fill="none" xmlns="http://www.w3.org/2000/svg">
<path d="M0.266842 14C0.195919 14 0.126584 13.9752 0.0753147 13.9291C0.00390416 13.8649 -0.0190449 13.7704 0.0164773 13.6862L1.24633 10.7508C0.430537 9.62917 0.000120008 8.33461 0.000120008 7C0.000120008 3.14015 3.58896 0 8.00006 0C12.4113 0 16 3.14015 16 7C16 10.8597 12.4113 14 8.00006 14C6.52461 14 5.08602 13.6451 3.83078 12.9731L0.35107 13.988C0.323604 13.996 0.295162 14 0.266842 14ZM3.86545 12.4838C3.91562 12.4838 3.96518 12.4961 4.00815 12.5199C5.20308 13.1831 6.58332 13.5333 8.00006 13.5333C12.1171 13.5333 15.4667 10.6024 15.4667 7C15.4667 3.39757 12.1171 0.46666 8.00006 0.46666C3.88303 0.46666 0.533563 3.39757 0.533563 7C0.533563 8.28259 0.959341 9.52534 1.76524 10.5936C1.81187 10.6554 1.82201 10.7328 1.79295 10.8024L0.707634 13.3921L3.78098 12.4959C3.80869 12.4878 3.83701 12.4838 3.86545 12.4838Z" fill="black"/>
</svg>
