<svg xmlns="http://www.w3.org/2000/svg" viewBox="0 0 18.54 18.5"><defs><style>.cls-1{fill:none;stroke:#000;stroke-miterlimit:10;stroke-width:0.5px;}</style></defs><g id="レイヤー_2" data-name="レイヤー 2"><g id="レイヤー_1-2" data-name="レイヤー 1"><path class="cls-1" d="M9.87.49l8.09,8a1.13,1.13,0,0,1,.33.79v8.17a.78.78,0,0,1-.81.76H12.77a.78.78,0,0,1-.81-.76l0-4.28a1.2,1.2,0,0,0-1.24-1.15H7.77a1.2,1.2,0,0,0-1.24,1.16v4.27a.79.79,0,0,1-.82.76H1.06a.78.78,0,0,1-.81-.76V9.32a1.13,1.13,0,0,1,.33-.79l8.09-8A.87.87,0,0,1,9.87.49Z"/></g></g></svg>